@startuml

scale 1.2
set namespaceSeparator none

skinparam monochrome true
skinparam ClassBackgroundColor white
skinparam ClassBorderColor black
skinparam CircledCharacterFontStyle normal

interface Publisher<T> {
+ void subscribe(Subscriber<? super T> s)
}

interface Subscriber<T> {
+ void onSubscribe(Subscription s)
+ void onNext(T item)
+ void onError(Throwable t)
+ void onComplete()
}

interface Subscription {
+ void request(long n)
+ void cancel()
}

interface Processor<T, R> {
}

Publisher <|-- Processor
Subscriber <|-- Processor

@enduml
